<?xml version="1.0" standalone="no"?>
<!DOCTYPE svg PUBLIC "-//W3C//DTD SVG 20010904//EN"
 "http://www.w3.org/TR/2001/REC-SVG-20010904/DTD/svg10.dtd">
<svg version="1.0" xmlns="http://www.w3.org/2000/svg"
 width="1024.000000pt" height="1024.000000pt" viewBox="0 0 1024.000000 1024.000000"
 preserveAspectRatio="xMidYMid meet">
<metadata>
Created by potrace 1.11, written by Peter Selinger 2001-2013
</metadata>
<g transform="translate(0.000000,1024.000000) scale(0.100000,-0.100000)"
fill="#000000" stroke="none">
<path d="M4755 9999 c-474 -38 -960 -150 -1400 -324 -171 -67 -536 -249 -698
-347 -1876 -1138 -2737 -3370 -2110 -5472 182 -612 498 -1193 927 -1706 109
-130 376 -399 521 -525 572 -495 1246 -845 1977 -1025 154 -37 456 -95 463
-88 7 7 26 171 26 223 0 10 5 25 10 32 6 6 8 17 4 23 -4 6 -2 16 4 23 5 7 12
46 15 87 8 106 27 223 39 237 15 21 0 43 -30 43 -38 0 -307 55 -423 86 -1335
359 -2390 1341 -2837 2639 -413 1203 -242 2531 463 3592 574 863 1440 1471
2447 1717 342 84 572 110 967 110 392 0 626 -26 970 -110 1148 -280 2127
-1051 2667 -2100 111 -216 173 -363 248 -589 135 -406 195 -753 211 -1225 8
-240 18 -280 92 -359 167 -177 445 -133 559 89 l28 55 -1 220 c-2 700 -166
1385 -489 2040 -334 677 -813 1257 -1410 1705 -747 560 -1594 877 -2534 950
-157 12 -547 11 -706 -1z"/>
<path d="M4860 9094 c-19 -2 -84 -9 -145 -15 -249 -24 -603 -101 -840 -182
-793 -270 -1483 -799 -1957 -1497 -875 -1289 -887 -2982 -32 -4285 548 -836
1393 -1425 2364 -1650 313 -72 487 -90 870 -90 331 0 415 6 650 46 635 109
1236 375 1735 768 1117 880 1661 2280 1429 3681 -247 1493 -1362 2719 -2819
3100 -351 92 -566 120 -940 125 -154 2 -296 1 -315 -1z m433 -1219 c307 -53
561 -241 691 -510 87 -179 81 -69 81 -1475 0 -1410 7 -1286 -85 -1475 -110
-229 -322 -400 -595 -482 -83 -25 -103 -27 -270 -27 -167 0 -186 2 -270 28
-333 101 -562 319 -657 628 l-23 73 -3 1225 c-3 1359 -5 1305 63 1463 54 126
94 186 191 282 228 227 552 327 877 270z m-1380 -2567 c3 -546 5 -578 26 -671
100 -446 411 -810 805 -942 544 -183 1111 42 1414 560 78 133 141 326 162 495
6 48 10 307 10 607 l0 523 175 0 175 0 0 -537 c0 -303 -5 -577 -10 -628 -57
-492 -317 -929 -713 -1198 -147 -100 -371 -195 -532 -226 -33 -7 -70 -14 -82
-17 l-23 -4 0 -255 0 -255 355 0 355 0 0 -185 0 -185 -910 0 -910 0 0 185 0
185 370 0 370 0 0 254 0 253 -77 13 c-615 99 -1139 618 -1273 1262 -35 169
-40 265 -40 806 l0 532 174 0 175 0 4 -572z"/>
</g>
</svg>
